<?xml version="1.0" encoding="UTF-8"?>
<svg xmlns="http://www.w3.org/2000/svg" xmlns:xlink="http://www.w3.org/1999/xlink" viewBox="0 0 1024 1024">
  <defs>
    <style>
      .cls-1 {
        fill: url(#radial-gradient-7);
      }

      .cls-1, .cls-2, .cls-3, .cls-4, .cls-5, .cls-6, .cls-7, .cls-8, .cls-9, .cls-10, .cls-11, .cls-12, .cls-13, .cls-14, .cls-15, .cls-16, .cls-17, .cls-18, .cls-19 {
        stroke-miterlimit: 10;
      }

      .cls-1, .cls-2, .cls-3, .cls-5, .cls-11, .cls-12, .cls-13, .cls-14, .cls-15, .cls-17, .cls-18 {
        stroke: #c90;
        stroke-width: 3px;
      }

      .cls-2 {
        fill: url(#radial-gradient-4);
      }

      .cls-3 {
        fill: url(#radial-gradient-3);
      }

      .cls-4 {
        fill: url(#radial-gradient-11);
      }

      .cls-4, .cls-6, .cls-7, .cls-8, .cls-9, .cls-10, .cls-16, .cls-19 {
        stroke-width: 2px;
      }

      .cls-4, .cls-7, .cls-8, .cls-9, .cls-10, .cls-16 {
        stroke: #6e6464;
      }

      .cls-5 {
        fill: url(#radial-gradient-15);
      }

      .cls-6 {
        fill: url(#radial-gradient-2);
        stroke: #000;
      }

      .cls-7 {
        fill: #dccdcd;
      }

      .cls-8 {
        fill: url(#radial-gradient);
      }

      .cls-20 {
        font-size: 18px;
      }

      .cls-20, .cls-21 {
        font-family: Tahoma, Tahoma;
      }

      .cls-21 {
        font-size: 22px;
      }

      .cls-9 {
        fill: url(#radial-gradient-12);
      }

      .cls-10 {
        fill: url(#radial-gradient-17);
      }

      .cls-11 {
        fill: url(#radial-gradient-16);
      }

      .cls-22, .cls-19 {
        fill: none;
      }

      .cls-23 {
        fill: #6682a7;
      }

      .cls-12 {
        fill: url(#radial-gradient-9);
      }

      .cls-13 {
        fill: url(#radial-gradient-8);
      }

      .cls-14 {
        fill: url(#radial-gradient-6);
      }

      .cls-15 {
        fill: url(#radial-gradient-10);
      }

      .cls-16 {
        fill: url(#radial-gradient-14);
      }

      .cls-17 {
        fill: url(#radial-gradient-5);
      }

      .cls-18 {
        fill: url(#radial-gradient-13);
      }

      .cls-19 {
        stroke: #6682a7;
      }
    </style>
    <radialGradient id="radial-gradient" cx="182" cy="360" fx="182" fy="360" r="52.56" gradientTransform="matrix(1, 0, 0, 1, 0, 0)" gradientUnits="userSpaceOnUse">
      <stop offset="0" stop-color="#fff" stop-opacity=".2"/>
      <stop offset="1" stop-color="#fff" stop-opacity=".7"/>
    </radialGradient>
    <radialGradient id="radial-gradient-2" cx="842" fx="842" xlink:href="#radial-gradient"/>
    <radialGradient id="radial-gradient-3" cx="345" cy="675" fx="345" fy="675" r="39.76" xlink:href="#radial-gradient"/>
    <radialGradient id="radial-gradient-4" cx="345" cy="507" fx="345" fy="507" r="39.76" xlink:href="#radial-gradient"/>
    <radialGradient id="radial-gradient-5" cx="345" cy="370" fx="345" fy="370" r="39.76" xlink:href="#radial-gradient"/>
    <radialGradient id="radial-gradient-6" cx="345" cy="210" fx="345" fy="210" r="39.76" xlink:href="#radial-gradient"/>
    <radialGradient id="radial-gradient-7" cx="679" cy="675.5" fx="679" fy="675.5" r="39.76" xlink:href="#radial-gradient"/>
    <radialGradient id="radial-gradient-8" cx="679" cy="507.5" fx="679" fy="507.5" r="39.76" xlink:href="#radial-gradient"/>
    <radialGradient id="radial-gradient-9" cx="679" cy="370.5" fx="679" fy="370.5" r="39.76" xlink:href="#radial-gradient"/>
    <radialGradient id="radial-gradient-10" cx="679" cy="210.5" fx="679" fy="210.5" r="39.76" xlink:href="#radial-gradient"/>
    <radialGradient id="radial-gradient-11" cx="512" cy="368" fx="512" fy="368" xlink:href="#radial-gradient"/>
    <radialGradient id="radial-gradient-12" cx="512" cy="900" fx="512" fy="900" xlink:href="#radial-gradient"/>
    <radialGradient id="radial-gradient-13" cx="512" cy="760" fx="512" fy="760" r="39.76" xlink:href="#radial-gradient"/>
    <radialGradient id="radial-gradient-14" cx="512" cy="620" fx="512" fy="620" xlink:href="#radial-gradient"/>
    <radialGradient id="radial-gradient-15" cx="512" cy="488" fx="512" fy="488" r="39.76" xlink:href="#radial-gradient"/>
    <radialGradient id="radial-gradient-16" cx="512" cy="246" fx="512" fy="246" r="39.76" xlink:href="#radial-gradient"/>
    <radialGradient id="radial-gradient-17" cx="512" cy="110" fx="512" fy="110" xlink:href="#radial-gradient"/>
  </defs>
  <g id="body">
    <g id="canvas">
      <rect class="cls-22" width="1024" height="1024"/>
    </g>
    <path id="silhouette" class="cls-7" d="M512,541.93c4.67,.22,10.67,2.69,9.89,31.02s19.48,93.38,22.51,104.69c3.02,11.31,3.81,20.49-4.03,41.54s-4.37,35.49,.56,49.04c4.93,13.55,7.95,41.77,8.51,67.29s-2.02,46.58-6.16,55.31-.34,14.22,2.13,19.93c1.28,2.97,2.62,6.44,2.66,8.86,.05,2.96,1.2,7.03,2.16,9.83,3.37,9.92,6.17,13.21,8.33,23.12,2.26,10.36,9.63,9.37,10.46,1.88,.07-.64,.91-.83,1.27-.3,2.02,2.93,4.42,2.98,7.47-.92,.33-.43,.98-.46,1.3-.02,2.15,2.88,6.01,3.98,7.11-.3,.19-.76,1.02-1.21,1.76-.97,2.38,.77,4.37-.81,4.94-2.11,.31-.7,1.14-.99,1.8-.6,1.29,.77,2.89,1.39,3.51-.98,.98-3.76-3.37-9.33-7.51-13.48s-9.08-14.76-9.08-14.76c-6.81-11.24-6.62-24.95-8.04-67.86s16.79-80.13,18.84-101.82c2.06-21.69-5.23-35.31-3.64-41.49s4.28-24.86,1.9-33.41,8.39-32.3,11.4-84.4-16.31-104.67-18.21-127.79,.16-42.6-5.23-63.02c-5.38-20.43,5.86-36.1,1.27-56.85s15.52-41.17,18.21-52.1,10.61-18.69,25.81-12.83c15.2,5.86,17.26,.32,43.86,11.56,26.6,11.24,38.16,10.29,61.28,19.16,23.12,8.87,52.41,9.03,65.4,14.09s15.68,8.55,18.84,12.98,5.54,5.54,11.24,8.23,5.07,6.65,9.66,12.19c4.59,5.54,10.45,6.81,13.14,6.65s2.38-3.01,.32-10.29,7.44-1.11,19,8.87c11.56,9.98,7.13,3.96,18.69,12.98,11.56,9.03,9.18-2.69,12.19,.63,3.01,3.33,7.76,9.34,13.62,7.44s-5.07-11.88-7.76-15.2-17.89-15.99-19.48-18.21-10.93-15.04-23.75-19.79-25.18-11.24-32.78-17.58-21.22-8.71-28.03-13.93-24.39-17.89-50.04-28.34-42.44-3.48-54.16-10.13c-11.72-6.65-21.85-6.02-41.33-22.33-19.48-16.31-42.91-28.03-61.44-24.23s-19.48-6.81-32.23-9.03-19.24-8.55-20.82-13.46-.63-10.13,3.01-15.68,4.12-21.69,5.23-21.85-.63,6.97,2.69,5.86,3.17-9.66,7.92-19.48,0-16.31-4.43-13.93-4.12-9.18-4.75-15.36-.32-35-36.99-35-36.36,28.82-36.99,35-.32,17.74-4.75,15.36-9.18,4.12-4.43,13.93,4.59,18.37,7.92,19.48,1.58-6.02,2.69-5.86,1.58,16.31,5.23,21.85,4.59,10.77,3.01,15.68-8.07,11.24-20.82,13.46-13.7,12.83-32.23,9.03-41.96,7.92-61.44,24.23c-19.48,16.31-29.61,15.68-41.33,22.33s-28.5-.32-54.16,10.13-43.23,23.12-50.04,28.34-20.43,7.6-28.03,13.93-19.95,12.83-32.78,17.58-22.17,17.58-23.75,19.79-16.79,14.88-19.48,18.21-13.62,13.3-7.76,15.2,10.61-4.12,13.62-7.44,.63,8.39,12.19-.63c11.56-9.03,7.13-3.01,18.69-12.98s21.06-16.15,19-8.87-2.38,10.13,.32,10.29,8.55-1.11,13.14-6.65c4.59-5.54,3.96-9.5,9.66-12.19s8.08-3.8,11.24-8.23,5.86-7.92,18.84-12.98,42.28-5.23,65.4-14.09c23.12-8.87,34.68-7.92,61.28-19.16,26.6-11.24,28.66-5.7,43.86-11.56,15.2-5.86,23.12,1.9,25.81,12.83s22.8,31.35,18.21,52.1,6.65,36.42,1.27,56.85c-5.38,20.43-3.33,39.9-5.23,63.02s-21.22,75.69-18.21,127.79,13.78,75.85,11.4,84.4,.32,27.24,1.9,33.41c1.58,6.18-5.7,19.79-3.64,41.49,2.06,21.69,20.27,58.91,18.84,101.82s-1.23,56.62-8.04,67.86c0,0-4.93,10.61-9.08,14.76s-8.5,9.72-7.51,13.48c.62,2.37,2.22,1.75,3.51,.98,.66-.39,1.49-.1,1.8,.6,.57,1.29,2.56,2.87,4.94,2.11,.74-.24,1.56,.22,1.76,.97,1.1,4.28,4.95,3.19,7.11,.3,.32-.43,.97-.4,1.3,.02,3.05,3.91,5.44,3.86,7.47,.92,.37-.53,1.2-.34,1.27,.3,.83,7.49,8.19,8.48,10.46-1.88,2.17-9.91,4.97-13.2,8.33-23.12,.95-2.8,2.1-6.88,2.16-9.83,.04-2.42,1.38-5.88,2.66-8.86,2.46-5.71,6.27-11.2,2.13-19.93s-6.72-29.78-6.16-55.31,3.58-53.75,8.51-67.29c4.93-13.55,8.4-27.99,.56-49.04s-7.05-30.23-4.03-41.54c3.02-11.31,23.29-76.36,22.51-104.69s5.22-30.79,9.89-31.02Z"/>
  </g>
  <g id="circles">
    <ellipse id="emocional" class="cls-8" cx="182" cy="360" rx="55" ry="50"/>
    <ellipse id="racional" class="cls-6" cx="842" cy="360" rx="55" ry="50"/>
    <ellipse id="cRight_Leg" class="cls-3" cx="345" cy="675" rx="44" ry="35"/>
    <ellipse id="CRight_Hip" class="cls-2" cx="345" cy="507" rx="44" ry="35"/>
    <ellipse id="cRight_Body" class="cls-17" cx="345" cy="370" rx="44" ry="35"/>
    <ellipse id="cRight_Arm" class="cls-14" cx="345" cy="210" rx="44" ry="35"/>
    <ellipse id="cLeft_Leg" class="cls-1" cx="679" cy="675.5" rx="44" ry="35"/>
    <ellipse id="cLeft_Hip" class="cls-13" cx="679" cy="507.5" rx="44" ry="35"/>
    <ellipse id="cLeft_Body" class="cls-12" cx="679" cy="370.5" rx="44" ry="35"/>
    <ellipse id="cLeft_Arm" class="cls-15" cx="679" cy="210.5" rx="44" ry="35"/>
    <ellipse id="espiritual" class="cls-4" cx="512" cy="368" rx="55" ry="50"/>
    <ellipse id="transpessoal" class="cls-9" cx="512" cy="900" rx="55" ry="50"/>
    <ellipse id="cCenter_Leg" class="cls-18" cx="512" cy="760" rx="44" ry="35"/>
    <ellipse id="tridimensional" class="cls-16" cx="512" cy="620" rx="55" ry="50"/>
    <ellipse id="cCenter_Hip" class="cls-5" cx="512" cy="488" rx="44" ry="35"/>
    <ellipse id="cCenter_Chest" class="cls-11" cx="512" cy="246" rx="44" ry="35"/>
    <ellipse id="mental" class="cls-10" cx="512" cy="110" rx="55" ry="50"/>
  </g>
  <g id="texts">
    <g id="tRight_Hand">
      <text class="cls-21" transform="translate(137.61 369.87) scale(1 1.2)"><tspan x="35" y="0" id="emocional">TEXTEXT17</tspan></text>
    </g>
    <g id="tLeft_Hand">
      <text class="cls-21" transform="translate(797.61 369.87) scale(1 1.2)"><tspan x="35" y="0" id="racional">TEXTEXT16</tspan></text>
    </g>
    <g id="tRight_Leg">
      <text class="cls-20" transform="translate(308.67 682.8) scale(1 1.2)"><tspan x="20" y="0">TEXTEXT15</tspan></text>
    </g>
    <g id="tRight_Hip">
      <text class="cls-20" transform="translate(308.67 515.8) scale(1 1.2)"><tspan x="20" y="0">TEXTEXT14</tspan></text>
    </g>
    <g id="TRight_Body">
      <text class="cls-20" transform="translate(308.67 377.8) scale(1 1.2)"><tspan x="20" y="0">TEXTEXT13</tspan></text>
    </g>
    <g id="tRight_Arm">
      <text class="cls-20" transform="translate(308.67 218.8) scale(1 1.2)"><tspan x="20" y="0">TEXTEXT12</tspan></text>
    </g>
    <g id="tLeft_Leg">
      <text class="cls-20" transform="translate(642.67 682.8) scale(1 1.2)"><tspan x="20" y="0">TEXTEXT11</tspan></text>
    </g>
    <g id="tLeft_Hip">
      <text class="cls-20" transform="translate(642.67 515.8) scale(1 1.2)"><tspan x="20" y="0">TEXTEXT10</tspan></text>
    </g>
    <g id="tLeft_Body">
      <text class="cls-20" transform="translate(642.67 377.8) scale(1 1.2)"><tspan x="20" y="0">TEXTEXT9</tspan></text>
    </g>
    <g id="tLeft_Arm">
      <text class="cls-20" transform="translate(642.67 218.8) scale(1 1.2)"><tspan x="20" y="0">TEXTEXT8</tspan></text>
    </g>
    <g id="tCenter_Feet">
      <text class="cls-21" transform="translate(467.61 908.87) scale(1 1.2)"><tspan x="35" y="0" id="transpessoal">TEXTEXT7</tspan></text>
    </g>
    <g id="tCenter_Leg">
      <text class="cls-20" transform="translate(475.68 768.8) scale(1 1.2)"><tspan x="20" y="0">TEXTEXT6</tspan></text>
    </g>
    <g id="tCenter_Thighs">
      <text class="cls-21" transform="translate(467.61 628.87) scale(1 1.2)"><tspan x="35" y="0" id="tridimensional">TEXTEXT5</tspan></text>
    </g>
    <g id="tCenter_Hip">
      <text class="cls-20" transform="translate(475.68 495.8) scale(1 1.2)"><tspan x="20" y="0">TEXTEXT4</tspan></text>
    </g>
    <g id="tCenter_Body">
      <text class="cls-21" transform="translate(467.61 376.87) scale(1 1.2)"><tspan x="35" y="0" id="espiritual">TEXTEXT3</tspan></text>
    </g>
    <g id="tCenter_Chest">
      <text class="cls-20" transform="translate(475.68 253.8) scale(1 1.2)"><tspan x="20" y="0">TEXTEXT2</tspan></text>
    </g>
    <g id="tCenter_Head">
      <text class="cls-21" transform="translate(467.61 119.87) scale(1 1.2)"><tspan x="35" y="0" id="mental">TEXTEXT1</tspan></text>
    </g>
  </g>
  <g id="arrows">
    <g>
      <line class="cls-19" x1="814.28" y1="423.34" x2="703.79" y2="631.84"/>
      <polygon class="cls-23" points="808.17 422.08 818.31 415.73 818.75 427.68 808.17 422.08"/>
      <polygon class="cls-23" points="699.32 627.49 699.76 639.44 709.89 633.09 699.32 627.49"/>
    </g>
    <g>
      <line class="cls-19" x1="650.12" y1="718.67" x2="561.78" y2="856.11"/>
      <polygon class="cls-23" points="644.14 716.91 654.77 711.42 654.2 723.38 644.14 716.91"/>
      <polygon class="cls-23" points="557.7 851.4 557.13 863.36 567.76 857.87 557.7 851.4"/>
    </g>
    <g>
      <line class="cls-19" x1="633.21" y1="538.14" x2="571.03" y2="584.46"/>
      <polygon class="cls-23" points="628.23 534.39 640.11 533 635.38 543.99 628.23 534.39"/>
      <polygon class="cls-23" points="568.86 578.62 564.13 589.61 576.01 588.21 568.86 578.62"/>
    </g>
    <g>
      <line class="cls-19" x1="792.68" y1="413.36" x2="725.87" y2="477.53"/>
      <polygon class="cls-23" points="787.27 410.26 798.89 407.39 795.56 418.89 787.27 410.26"/>
      <polygon class="cls-23" points="722.99 472 719.66 483.5 731.28 480.63 722.99 472"/>
    </g>
    <g>
      <line class="cls-19" x1="621.15" y1="370" x2="583.88" y2="370"/>
      <polygon class="cls-23" points="619.4 364.02 629.76 370 619.4 375.98 619.4 364.02"/>
      <polygon class="cls-23" points="585.63 364.02 575.27 370 585.63 375.98 585.63 364.02"/>
    </g>
    <g>
      <line class="cls-19" x1="512" y1="173.95" x2="512" y2="196.05"/>
      <polygon class="cls-23" points="506.02 175.7 512 165.34 517.98 175.7 506.02 175.7"/>
      <polygon class="cls-23" points="506.02 194.3 512 204.66 517.98 194.3 506.02 194.3"/>
    </g>
    <g>
      <line class="cls-19" x1="512" y1="293.62" x2="512" y2="304.72"/>
      <polygon class="cls-23" points="506.02 295.37 512 285.01 517.98 295.37 506.02 295.37"/>
      <polygon class="cls-23" points="506.02 302.97 512 313.33 517.98 302.97 506.02 302.97"/>
    </g>
    <g>
      <line class="cls-19" x1="512" y1="430.28" x2="512" y2="441.38"/>
      <polygon class="cls-23" points="506.02 432.03 512 421.67 517.98 432.03 506.02 432.03"/>
      <polygon class="cls-23" points="506.02 439.63 512 449.99 517.98 439.63 506.02 439.63"/>
    </g>
    <g>
      <line class="cls-19" x1="512" y1="535.61" x2="512" y2="557.71"/>
      <polygon class="cls-23" points="506.02 537.36 512 527 517.98 537.36 506.02 537.36"/>
      <polygon class="cls-23" points="506.02 555.96 512 566.32 517.98 555.96 506.02 555.96"/>
    </g>
    <g>
      <line class="cls-19" x1="512" y1="683.8" x2="512" y2="710.9"/>
      <polygon class="cls-23" points="506.02 685.55 512 675.19 517.98 685.55 506.02 685.55"/>
      <polygon class="cls-23" points="506.02 709.15 512 719.51 517.98 709.15 506.02 709.15"/>
    </g>
    <g>
      <line class="cls-19" x1="512" y1="809.45" x2="512" y2="835.55"/>
      <polygon class="cls-23" points="506.02 811.2 512 800.84 517.98 811.2 506.02 811.2"/>
      <polygon class="cls-23" points="506.02 833.8 512 844.16 517.98 833.8 506.02 833.8"/>
    </g>
    <g>
      <line class="cls-19" x1="630.55" y1="181.41" x2="574.48" y2="144.82"/>
      <polygon class="cls-23" points="632.35 175.44 637.76 186.11 625.81 185.46 632.35 175.44"/>
      <polygon class="cls-23" points="579.22 140.77 567.27 140.11 572.68 150.79 579.22 140.77"/>
    </g>
    <g>
      <line class="cls-19" x1="794.46" y1="312.66" x2="721.61" y2="245.35"/>
      <polygon class="cls-23" points="797.23 307.08 800.78 318.51 789.11 315.87 797.23 307.08"/>
      <polygon class="cls-23" points="726.96 242.14 715.29 239.51 718.84 250.93 726.96 242.14"/>
    </g>
    <g>
      <line class="cls-19" x1="772.63" y1="370" x2="738.37" y2="370"/>
      <polygon class="cls-23" points="770.88 364.02 781.25 370 770.88 375.98 770.88 364.02"/>
      <polygon class="cls-23" points="740.12 364.02 729.75 370 740.12 375.98 740.12 364.02"/>
    </g>
    <g>
      <line class="cls-19" x1="209.44" y1="423.34" x2="319.93" y2="631.84"/>
      <polygon class="cls-23" points="204.97 427.68 205.41 415.73 215.55 422.08 204.97 427.68"/>
      <polygon class="cls-23" points="313.83 633.09 323.96 639.44 324.4 627.49 313.83 633.09"/>
    </g>
    <g>
      <line class="cls-19" x1="373.61" y1="718.67" x2="461.94" y2="856.11"/>
      <polygon class="cls-23" points="369.52 723.38 368.95 711.42 379.58 716.91 369.52 723.38"/>
      <polygon class="cls-23" points="455.96 857.87 466.59 863.36 466.02 851.4 455.96 857.87"/>
    </g>
    <g>
      <line class="cls-19" x1="390.51" y1="538.14" x2="452.69" y2="584.46"/>
      <polygon class="cls-23" points="388.34 543.99 383.61 533 395.49 534.39 388.34 543.99"/>
      <polygon class="cls-23" points="447.71 588.21 459.59 589.61 454.86 578.62 447.71 588.21"/>
    </g>
    <g>
      <line class="cls-19" x1="231.04" y1="413.36" x2="297.85" y2="477.53"/>
      <polygon class="cls-23" points="228.16 418.89 224.83 407.39 236.45 410.26 228.16 418.89"/>
      <polygon class="cls-23" points="292.44 480.63 304.06 483.5 300.73 472 292.44 480.63"/>
    </g>
    <g>
      <line class="cls-19" x1="402.57" y1="370" x2="439.84" y2="370"/>
      <polygon class="cls-23" points="404.32 375.98 393.96 370 404.32 364.02 404.32 375.98"/>
      <polygon class="cls-23" points="438.09 375.98 448.45 370 438.09 364.02 438.09 375.98"/>
    </g>
    <g>
      <line class="cls-19" x1="393.17" y1="181.41" x2="449.24" y2="144.82"/>
      <polygon class="cls-23" points="397.91 185.46 385.96 186.11 391.37 175.44 397.91 185.46"/>
      <polygon class="cls-23" points="451.04 150.79 456.45 140.11 444.5 140.77 451.04 150.79"/>
    </g>
    <g>
      <line class="cls-19" x1="229.27" y1="312.66" x2="302.11" y2="245.35"/>
      <polygon class="cls-23" points="234.61 315.87 222.94 318.51 226.49 307.08 234.61 315.87"/>
      <polygon class="cls-23" points="304.88 250.93 308.43 239.51 296.76 242.14 304.88 250.93"/>
    </g>
    <g>
      <line class="cls-19" x1="251.09" y1="370" x2="285.36" y2="370"/>
      <polygon class="cls-23" points="252.84 375.98 242.47 370 252.84 364.02 252.84 375.98"/>
      <polygon class="cls-23" points="283.6 375.98 293.97 370 283.6 364.02 283.6 375.98"/>
    </g>
  </g>
</svg>